<?xml version="1.0" encoding="UTF-8"?>
<svg xmlns="http://www.w3.org/2000/svg" xmlns:xlink="http://www.w3.org/1999/xlink" width="2016" height="1440" viewBox="0 0 2016 1440">
<rect x="-201.6" y="-144" width="2419.2" height="1728" fill="rgb(100%, 100%, 100%)" fill-opacity="1"/>
<path fill="none" stroke-width="30" stroke-linecap="round" stroke-linejoin="round" stroke="rgb(40.784314%, 13.333333%, 54.509804%)" stroke-opacity="1" stroke-miterlimit="10" d="M 130.398438 1045.828125 L 158.71875 1105.023438 L 215.351562 1105.023438 L 243.667969 1164.222656 L 356.941406 1164.222656 L 385.257812 1282.613281 L 583.480469 1282.613281 L 611.796875 1318.132812 L 1093.195312 1318.132812 L 1121.511719 1258.9375 L 1178.144531 1022.148438 L 1206.464844 903.753906 L 1234.78125 785.359375 L 1263.097656 726.164062 L 1291.414062 666.964844 L 1319.734375 607.769531 L 1348.050781 607.769531 L 1376.367188 548.574219 L 1404.6875 489.375 L 1433.003906 489.375 L 1461.320312 430.179688 L 1489.636719 370.980469 L 1574.589844 370.980469 "/>
<path fill="none" stroke-width="7.5" stroke-linecap="round" stroke-linejoin="round" stroke="rgb(74.901961%, 24.313725%, 100%)" stroke-opacity="1" stroke-miterlimit="10" d="M 1263.097656 726.164062 L 1291.414062 696.125 L 1319.734375 638.386719 L 1348.050781 585.59375 L 1376.367188 536.132812 L 1404.6875 481.957031 L 1433.003906 444.351562 L 1461.320312 427.90625 L 1489.636719 422.046875 L 1517.957031 417.722656 L 1546.273438 412.5625 L 1574.589844 404.683594 L 1602.90625 398.722656 "/>
<path fill="none" stroke-width="7.5" stroke-linecap="round" stroke-linejoin="round" stroke="rgb(71.372549%, 23.137255%, 95.294118%)" stroke-opacity="1" stroke-miterlimit="10" d="M 1291.414062 666.964844 L 1319.734375 680.644531 L 1348.050781 631.625 L 1376.367188 577.535156 L 1404.6875 526.535156 L 1433.003906 485.546875 L 1461.320312 453.816406 L 1489.636719 427.148438 L 1517.957031 407.59375 L 1546.273438 389.085938 L 1574.589844 368.792969 L 1602.90625 352.234375 L 1631.226562 337.875 "/>
<path fill="none" stroke-width="7.5" stroke-linecap="round" stroke-linejoin="round" stroke="rgb(67.843137%, 21.960784%, 90.588235%)" stroke-opacity="1" stroke-miterlimit="10" d="M 1348.050781 607.769531 L 1376.367188 578.675781 L 1404.6875 564.417969 L 1433.003906 552.304688 L 1461.320312 545.78125 L 1489.636719 543 L 1517.957031 541.484375 L 1546.273438 538.496094 L 1574.589844 536.15625 L 1602.90625 533.40625 L 1631.226562 530.894531 L 1659.542969 528.105469 L 1687.859375 524.195312 "/>
<path fill="none" stroke-width="7.5" stroke-linecap="round" stroke-linejoin="round" stroke="rgb(64.313725%, 20.784314%, 86.27451%)" stroke-opacity="1" stroke-miterlimit="10" d="M 1376.367188 548.574219 L 1404.6875 503.574219 L 1433.003906 469.644531 L 1461.320312 440.582031 L 1489.636719 417.996094 L 1517.957031 400.539062 L 1546.273438 382.664062 L 1574.589844 368.324219 L 1602.90625 354.726562 L 1631.226562 341.066406 L 1659.542969 328.929688 L 1687.859375 315.8125 L 1716.179688 303.574219 "/>
<path fill="none" stroke-width="7.5" stroke-linecap="round" stroke-linejoin="round" stroke="rgb(61.176471%, 19.607843%, 81.568627%)" stroke-opacity="1" stroke-miterlimit="10" d="M 1404.6875 489.375 L 1433.003906 478.488281 L 1461.320312 485.945312 L 1489.636719 500.3125 L 1517.957031 517.382812 L 1546.273438 528.632812 L 1574.589844 534.429688 L 1602.90625 541.957031 L 1631.226562 548.96875 L 1659.542969 554.101562 L 1687.859375 557.25 L 1716.179688 556.292969 L 1744.496094 552.832031 "/>
<path fill="none" stroke-width="7.5" stroke-linecap="round" stroke-linejoin="round" stroke="rgb(57.647059%, 18.823529%, 76.862745%)" stroke-opacity="1" stroke-miterlimit="10" d="M 1433.003906 489.375 L 1461.320312 505.550781 L 1489.636719 507.585938 L 1517.957031 505.238281 L 1546.273438 494.3125 L 1574.589844 482.597656 L 1602.90625 474.0625 L 1631.226562 464.125 L 1659.542969 447.125 L 1687.859375 426.136719 L 1716.179688 392.863281 L 1744.496094 371.546875 L 1772.8125 357.613281 "/>
<path fill="none" stroke-width="7.5" stroke-linecap="round" stroke-linejoin="round" stroke="rgb(54.117647%, 17.647059%, 72.54902%)" stroke-opacity="1" stroke-miterlimit="10" d="M 1461.320312 430.179688 L 1489.636719 391.8125 L 1517.957031 361.207031 L 1546.273438 323.632812 L 1574.589844 289.5 L 1602.90625 266.871094 L 1631.226562 241.726562 L 1659.542969 217.867188 L 1687.859375 194.398438 L 1716.179688 166.363281 L 1744.496094 147.351562 L 1772.8125 134.132812 L 1801.128906 127.191406 "/>
<path fill="none" stroke-width="7.5" stroke-linecap="round" stroke-linejoin="round" stroke="rgb(50.980392%, 16.470588%, 67.843137%)" stroke-opacity="1" stroke-miterlimit="10" d="M 1489.636719 370.980469 L 1517.957031 336.40625 L 1546.273438 286.03125 L 1574.589844 246.066406 L 1602.90625 210.109375 L 1631.226562 192.933594 L 1659.542969 175.808594 L 1687.859375 166.65625 L 1716.179688 147.339844 L 1744.496094 127.355469 L 1772.8125 117.042969 L 1801.128906 111.175781 L 1829.449219 107.464844 "/>
<path fill="none" stroke-width="7.5" stroke-linecap="round" stroke-linejoin="round" stroke="rgb(47.45098%, 15.294118%, 63.529412%)" stroke-opacity="1" stroke-miterlimit="10" d="M 1517.957031 370.980469 L 1546.273438 338.546875 L 1574.589844 303.851562 L 1602.90625 270.746094 L 1631.226562 254.847656 L 1659.542969 240.726562 L 1687.859375 235.132812 L 1716.179688 222.238281 L 1744.496094 209.71875 L 1772.8125 203.144531 L 1801.128906 199.667969 L 1829.449219 194.269531 L 1857.765625 194.15625 "/>
<path fill="none" stroke-width="7.5" stroke-linecap="round" stroke-linejoin="round" stroke="rgb(43.921569%, 14.117647%, 58.823529%)" stroke-opacity="1" stroke-miterlimit="10" d="M 1546.273438 370.980469 L 1574.589844 361.566406 L 1602.90625 348.15625 L 1631.226562 350.125 L 1659.542969 354.957031 L 1687.859375 366.328125 L 1716.179688 367.332031 L 1744.496094 363.617188 L 1772.8125 362.820312 L 1801.128906 361.976562 L 1829.449219 356.324219 L 1857.765625 356.964844 L 1886.082031 353.789062 "/>
<path fill="none" stroke-width="7.5" stroke-linecap="round" stroke-linejoin="round" stroke="rgb(40.784314%, 13.333333%, 54.509804%)" stroke-opacity="1" stroke-miterlimit="10" d="M 1574.589844 370.980469 L 1602.90625 355.144531 L 1631.226562 347.261719 L 1659.542969 347.921875 L 1687.859375 351.691406 L 1716.179688 350.84375 L 1744.496094 348.203125 L 1772.8125 348.539062 L 1801.128906 349.605469 L 1829.449219 347.152344 L 1857.765625 352.042969 L 1886.082031 347.082031 L 1914.398438 348.945312 "/>
</svg>
