<?xml version="1.0" encoding="UTF-8"?>
<svg xmlns="http://www.w3.org/2000/svg" xmlns:xlink="http://www.w3.org/1999/xlink" width="2016" height="1440" viewBox="0 0 2016 1440">
<defs>
<clipPath id="clip-0">
<path clip-rule="nonzero" d="M 1279 59.039062 L 1549 59.039062 L 1549 330 L 1279 330 Z M 1279 59.039062 "/>
</clipPath>
</defs>
<rect x="-201.6" y="-144" width="2419.2" height="1728" fill="rgb(100%, 100%, 100%)" fill-opacity="1"/>
<path fill="none" stroke-width="30" stroke-linecap="round" stroke-linejoin="round" stroke="rgb(40.784314%, 13.333333%, 54.509804%)" stroke-opacity="1" stroke-miterlimit="10" d="M 130.398438 954.933594 L 217.425781 954.933594 L 239.179688 1015.464844 L 260.9375 1076 L 304.449219 1076 L 326.203125 1136.535156 L 413.230469 1136.535156 L 434.984375 1257.601562 L 587.277344 1257.601562 L 609.035156 1293.921875 L 978.886719 1293.921875 L 1000.644531 1233.386719 L 1022.398438 1112.320312 L 1065.914062 870.1875 L 1087.667969 749.121094 L 1109.425781 688.585938 L 1131.179688 628.054688 L 1152.9375 567.519531 L 1174.691406 567.519531 L 1196.449219 506.988281 L 1218.203125 446.453125 L 1239.960938 446.453125 L 1261.71875 385.921875 L 1283.472656 325.386719 L 1370.496094 325.386719 L 1392.253906 264.851562 L 1631.570312 264.851562 "/>
<path fill="none" stroke-width="7.5" stroke-linecap="round" stroke-linejoin="round" stroke="rgb(74.901961%, 24.313725%, 100%)" stroke-opacity="1" stroke-miterlimit="10" d="M 1109.425781 688.585938 L 1131.179688 657.867188 L 1152.9375 598.828125 L 1174.691406 544.84375 L 1196.449219 494.265625 L 1218.203125 438.867188 L 1239.960938 400.414062 L 1261.71875 383.597656 L 1283.472656 377.605469 L 1305.230469 373.183594 L 1326.984375 367.90625 L 1348.742188 359.847656 L 1370.496094 353.753906 "/>
<path fill="none" stroke-width="7.5" stroke-linecap="round" stroke-linejoin="round" stroke="rgb(72.941176%, 23.529412%, 97.647059%)" stroke-opacity="1" stroke-miterlimit="10" d="M 1131.179688 628.054688 L 1152.9375 642.039062 L 1174.691406 591.914062 L 1196.449219 536.601562 L 1218.203125 484.453125 L 1239.960938 442.539062 L 1261.71875 410.089844 L 1283.472656 382.820312 L 1305.230469 362.824219 L 1326.984375 343.898438 L 1348.742188 323.148438 L 1370.496094 306.214844 L 1392.253906 291.535156 "/>
<path fill="none" stroke-width="7.5" stroke-linecap="round" stroke-linejoin="round" stroke="rgb(71.372549%, 23.137255%, 95.294118%)" stroke-opacity="1" stroke-miterlimit="10" d="M 1174.691406 567.519531 L 1196.449219 537.769531 L 1218.203125 523.1875 L 1239.960938 510.804688 L 1261.71875 504.132812 L 1283.472656 501.289062 L 1305.230469 499.738281 L 1326.984375 496.683594 L 1348.742188 494.289062 L 1370.496094 491.476562 L 1392.253906 488.90625 L 1414.007812 486.058594 L 1435.765625 482.058594 "/>
<path fill="none" stroke-width="7.5" stroke-linecap="round" stroke-linejoin="round" stroke="rgb(69.411765%, 22.352941%, 92.941176%)" stroke-opacity="1" stroke-miterlimit="10" d="M 1196.449219 506.988281 L 1218.203125 460.972656 L 1239.960938 426.273438 L 1261.71875 396.558594 L 1283.472656 373.460938 L 1305.230469 355.609375 L 1326.984375 337.332031 L 1348.742188 322.671875 L 1370.496094 308.765625 L 1392.253906 294.792969 L 1414.007812 282.386719 L 1435.765625 268.972656 L 1457.523438 256.457031 "/>
<path fill="none" stroke-width="7.5" stroke-linecap="round" stroke-linejoin="round" stroke="rgb(67.843137%, 21.960784%, 90.588235%)" stroke-opacity="1" stroke-miterlimit="10" d="M 1218.203125 446.453125 L 1239.960938 435.320312 L 1261.71875 442.945312 L 1283.472656 457.636719 L 1305.230469 475.09375 L 1326.984375 486.597656 L 1348.742188 492.523438 L 1370.496094 500.21875 L 1392.253906 507.390625 L 1414.007812 512.640625 L 1435.765625 515.859375 L 1457.523438 514.878906 L 1479.277344 511.339844 "/>
<path fill="none" stroke-width="7.5" stroke-linecap="round" stroke-linejoin="round" stroke="rgb(66.27451%, 21.568627%, 88.627451%)" stroke-opacity="1" stroke-miterlimit="10" d="M 1239.960938 446.453125 L 1261.71875 462.996094 L 1283.472656 465.074219 L 1305.230469 462.675781 L 1326.984375 451.5 L 1348.742188 439.523438 L 1370.496094 430.796875 L 1392.253906 420.632812 L 1414.007812 403.25 L 1435.765625 381.785156 L 1457.523438 347.761719 L 1479.277344 325.964844 L 1501.035156 311.71875 "/>
<path fill="none" stroke-width="7.5" stroke-linecap="round" stroke-linejoin="round" stroke="rgb(64.313725%, 20.784314%, 86.27451%)" stroke-opacity="1" stroke-miterlimit="10" d="M 1261.71875 385.921875 L 1283.472656 346.6875 L 1305.230469 315.394531 L 1326.984375 276.96875 L 1348.742188 242.066406 L 1370.496094 218.925781 L 1392.253906 193.214844 L 1414.007812 168.816406 L 1435.765625 144.820312 L 1457.523438 116.148438 L 1479.277344 96.707031 L 1501.035156 83.191406 L 1522.789062 76.09375 "/>
<g clip-path="url(#clip-0)">
<path fill="none" stroke-width="7.5" stroke-linecap="round" stroke-linejoin="round" stroke="rgb(62.745098%, 20.392157%, 83.921569%)" stroke-opacity="1" stroke-miterlimit="10" d="M 1283.472656 325.386719 L 1305.230469 290.03125 L 1326.984375 238.519531 L 1348.742188 197.648438 L 1370.496094 160.882812 L 1392.253906 143.316406 L 1414.007812 125.804688 L 1435.765625 116.449219 L 1457.523438 96.695312 L 1479.277344 76.261719 L 1501.035156 65.714844 L 1522.789062 59.71875 L 1544.546875 55.921875 "/>
</g>
<path fill="none" stroke-width="7.5" stroke-linecap="round" stroke-linejoin="round" stroke="rgb(61.176471%, 19.607843%, 81.568627%)" stroke-opacity="1" stroke-miterlimit="10" d="M 1305.230469 325.386719 L 1326.984375 292.21875 L 1348.742188 256.742188 L 1370.496094 222.886719 L 1392.253906 206.628906 L 1414.007812 192.191406 L 1435.765625 186.472656 L 1457.523438 173.285156 L 1479.277344 160.484375 L 1501.035156 153.761719 L 1522.789062 150.203125 L 1544.546875 144.6875 L 1566.300781 144.566406 "/>
<path fill="none" stroke-width="7.5" stroke-linecap="round" stroke-linejoin="round" stroke="rgb(59.215686%, 19.215686%, 79.215686%)" stroke-opacity="1" stroke-miterlimit="10" d="M 1326.984375 325.386719 L 1348.742188 315.757812 L 1370.496094 302.046875 L 1392.253906 304.058594 L 1414.007812 309 L 1435.765625 320.628906 L 1457.523438 321.652344 L 1479.277344 317.855469 L 1501.035156 317.039062 L 1522.789062 316.179688 L 1544.546875 310.398438 L 1566.300781 311.054688 L 1588.058594 307.808594 "/>
<path fill="none" stroke-width="7.5" stroke-linecap="round" stroke-linejoin="round" stroke="rgb(57.647059%, 18.823529%, 76.862745%)" stroke-opacity="1" stroke-miterlimit="10" d="M 1348.742188 325.386719 L 1370.496094 309.195312 L 1392.253906 301.132812 L 1414.007812 301.804688 L 1435.765625 305.660156 L 1457.523438 304.796875 L 1479.277344 302.09375 L 1501.035156 302.433594 L 1522.789062 303.53125 L 1544.546875 301.019531 L 1566.300781 306.019531 L 1588.058594 300.949219 L 1609.816406 302.855469 "/>
<path fill="none" stroke-width="7.5" stroke-linecap="round" stroke-linejoin="round" stroke="rgb(56.078431%, 18.039216%, 74.901961%)" stroke-opacity="1" stroke-miterlimit="10" d="M 1370.496094 325.386719 L 1392.253906 309.117188 L 1414.007812 292.789062 L 1435.765625 284.59375 L 1457.523438 270.984375 L 1479.277344 267.621094 L 1501.035156 280.277344 L 1522.789062 286.796875 L 1544.546875 293.414062 L 1566.300781 305.136719 L 1588.058594 312.640625 L 1609.816406 314.25 L 1631.570312 321.582031 "/>
<path fill="none" stroke-width="7.5" stroke-linecap="round" stroke-linejoin="round" stroke="rgb(54.117647%, 17.647059%, 72.54902%)" stroke-opacity="1" stroke-miterlimit="10" d="M 1392.253906 264.851562 L 1414.007812 268.703125 L 1435.765625 270.351562 L 1457.523438 262.214844 L 1479.277344 265.089844 L 1501.035156 279.074219 L 1522.789062 286.417969 L 1544.546875 294 L 1566.300781 306.28125 L 1588.058594 312.460938 L 1609.816406 314.402344 L 1631.570312 323.203125 L 1653.328125 325.785156 "/>
<path fill="none" stroke-width="7.5" stroke-linecap="round" stroke-linejoin="round" stroke="rgb(52.54902%, 16.862745%, 70.196078%)" stroke-opacity="1" stroke-miterlimit="10" d="M 1414.007812 264.851562 L 1435.765625 278.570312 L 1457.523438 279.398438 L 1479.277344 294.519531 L 1501.035156 310.253906 L 1522.789062 323.171875 L 1544.546875 329.027344 L 1566.300781 341.042969 L 1588.058594 338.460938 L 1609.816406 344.695312 L 1631.570312 352.746094 L 1653.328125 358.980469 L 1675.082031 365.992188 "/>
<path fill="none" stroke-width="7.5" stroke-linecap="round" stroke-linejoin="round" stroke="rgb(50.980392%, 16.470588%, 67.843137%)" stroke-opacity="1" stroke-miterlimit="10" d="M 1435.765625 264.851562 L 1457.523438 255.71875 L 1479.277344 263.441406 L 1501.035156 282.578125 L 1522.789062 306.589844 L 1544.546875 302.25 L 1566.300781 319.761719 L 1588.058594 313.792969 L 1609.816406 328.324219 L 1631.570312 341.027344 L 1653.328125 356.859375 L 1675.082031 373.746094 L 1696.839844 387.410156 "/>
<path fill="none" stroke-width="7.5" stroke-linecap="round" stroke-linejoin="round" stroke="rgb(49.019608%, 15.686275%, 65.882353%)" stroke-opacity="1" stroke-miterlimit="10" d="M 1457.523438 264.851562 L 1479.277344 272.78125 L 1501.035156 289.878906 L 1522.789062 275.074219 L 1544.546875 284.023438 L 1566.300781 271.988281 L 1588.058594 279.390625 L 1609.816406 286.503906 L 1631.570312 296.105469 L 1653.328125 306.652344 L 1675.082031 316.570312 L 1696.839844 316.644531 L 1718.59375 327.980469 "/>
<path fill="none" stroke-width="7.5" stroke-linecap="round" stroke-linejoin="round" stroke="rgb(47.45098%, 15.294118%, 63.529412%)" stroke-opacity="1" stroke-miterlimit="10" d="M 1479.277344 264.851562 L 1501.035156 254.800781 L 1522.789062 228.324219 L 1544.546875 227.953125 L 1566.300781 205.652344 L 1588.058594 199.558594 L 1609.816406 203.328125 L 1631.570312 205.476562 L 1653.328125 210.753906 L 1675.082031 219.289062 L 1696.839844 219.546875 L 1718.59375 224.335938 L 1740.351562 227.808594 "/>
<path fill="none" stroke-width="7.5" stroke-linecap="round" stroke-linejoin="round" stroke="rgb(45.882353%, 14.901961%, 61.176471%)" stroke-opacity="1" stroke-miterlimit="10" d="M 1522.789062 264.851562 L 1544.546875 260.636719 L 1566.300781 244.871094 L 1588.058594 236.484375 L 1609.816406 244.050781 L 1631.570312 255.417969 L 1653.328125 260.140625 L 1675.082031 269.339844 L 1696.839844 267.101562 L 1718.59375 269.269531 L 1740.351562 273.226562 L 1762.105469 271.050781 L 1783.863281 273.21875 "/>
<path fill="none" stroke-width="7.5" stroke-linecap="round" stroke-linejoin="round" stroke="rgb(43.921569%, 14.117647%, 58.823529%)" stroke-opacity="1" stroke-miterlimit="10" d="M 1566.300781 264.851562 L 1588.058594 251.894531 L 1609.816406 242.421875 L 1631.570312 252.175781 L 1653.328125 268.390625 L 1675.082031 281.203125 L 1696.839844 295.363281 L 1718.59375 297.53125 L 1740.351562 305.796875 L 1762.105469 315.46875 L 1783.863281 315.667969 L 1805.621094 321.332031 L 1827.375 329.722656 "/>
<path fill="none" stroke-width="7.5" stroke-linecap="round" stroke-linejoin="round" stroke="rgb(42.352941%, 13.72549%, 56.470588%)" stroke-opacity="1" stroke-miterlimit="10" d="M 1609.816406 264.851562 L 1631.570312 268.109375 L 1653.328125 293.285156 L 1675.082031 322.398438 L 1696.839844 348.777344 L 1718.59375 370.578125 L 1740.351562 379.417969 L 1762.105469 391.5625 L 1783.863281 405.207031 L 1805.621094 412.703125 L 1827.375 422.972656 L 1849.132812 433.640625 L 1870.886719 441.875 "/>
<path fill="none" stroke-width="7.5" stroke-linecap="round" stroke-linejoin="round" stroke="rgb(40.784314%, 13.333333%, 54.509804%)" stroke-opacity="1" stroke-miterlimit="10" d="M 1631.570312 264.851562 L 1653.328125 269.21875 L 1675.082031 272.625 L 1696.839844 279.585938 L 1718.59375 277.039062 L 1740.351562 283.042969 L 1762.105469 290.585938 L 1783.863281 299.027344 L 1805.621094 307.171875 L 1827.375 316.289062 L 1849.132812 321.644531 L 1870.886719 325.621094 L 1892.644531 329.65625 "/>
</svg>
